<svg width="21" height="24" viewBox="0 0 21 24" fill="none" xmlns="http://www.w3.org/2000/svg">
<path d="M15.273 0.0120105C15.222 -0.0449895 13.3845 0.0345106 11.7855 1.77001C10.1865 3.50401 10.4325 5.49301 10.4685 5.54401C10.5045 5.59501 12.7485 5.67451 14.181 3.65701C15.6135 1.63951 15.324 0.0705105 15.273 0.0120105ZM20.244 17.6115C20.172 17.4675 16.7565 15.7605 17.0745 12.4785C17.3925 9.19501 19.587 8.29501 19.6215 8.19751C19.656 8.10001 18.726 7.01251 17.7405 6.46201C17.0169 6.07389 16.2161 5.85152 15.396 5.81101C15.234 5.80651 14.6715 5.66851 13.515 5.98501C12.753 6.19351 11.0355 6.86851 10.563 6.89551C10.089 6.92251 8.679 6.11251 7.1625 5.89801C6.192 5.71051 5.163 6.09451 4.4265 6.39001C3.6915 6.68401 2.2935 7.52101 1.3155 9.74551C0.337496 11.9685 0.848996 15.4905 1.215 16.5855C1.581 17.679 2.1525 19.4715 3.1245 20.7795C3.9885 22.2555 5.1345 23.28 5.613 23.628C6.0915 23.976 7.4415 24.207 8.3775 23.7285C9.1305 23.2665 10.4895 23.001 11.0265 23.0205C11.562 23.04 12.618 23.2515 13.6995 23.829C14.556 24.1245 15.366 24.0015 16.1775 23.6715C16.989 23.34 18.1635 22.083 19.5345 19.5345C20.055 18.3495 20.292 17.709 20.244 17.6115Z" fill="black"/>
</svg>
